<?xml version="1.0" encoding="UTF-8"?>
<svg xmlns="http://www.w3.org/2000/svg" viewBox="0 0 32 32">
  <rect width="32" height="32" fill="#141414"/>
  <g fill="#00bcd4" transform="translate(16 16)">
    <path d="M0-11.5A11.5 11.5 0 0 1 9.96-5.75L4.1-2.35 0-5Z"/>
    <path d="M9.96-5.75A11.5 11.5 0 0 1 9.96 5.75L4.1 2.35 4.1-2.35Z"/>
    <path d="M9.96 5.75A11.5 11.5 0 0 1 0 11.5L0 5 4.1 2.35Z"/>
    <path d="M0 11.5A11.5 11.5 0 0 1-9.96 5.75L-4.1 2.35 0 5Z"/>
    <path d="M-9.96 5.75A11.5 11.5 0 0 1-9.96-5.75L-4.1-2.35-4.1 2.35Z"/>
    <path d="M-9.96-5.75A11.5 11.5 0 0 1 0-11.5L0-5-4.1-2.35Z"/>
  </g>
  <polygon fill="#141414" points="16,11.5 19.9,13.75 19.9,18.25 16,20.5 12.1,18.25 12.1,13.75"/>
</svg>
